# xmcd
#
# Track frame offsets: 
#        150
#        17539
#        43995
#        66694
#        80234
#        111872
#        133223
#        145271
#        165788
#        181669
#
# Disc length: 2770 seconds
#
# Revision: 2
# Processed by: cddbd v1.5.2PL0 Copyright (c) Steve Scherf et al.
# Submitted via: ExactAudioCopyFreeDBPlugin 1.0
#
DISCID=8c0ad00a
DTITLE=Natalie Maines - Mother
DYEAR=2013
DGENRE=Country Rock
TTITLE0=Without You
TTITLE1=Mother
TTITLE2=Free Life
TTITLE3=Silver Bell
TTITLE4=Lover, You Should Have Come Over
TTITLE5=Vein In Vain
TTITLE6=Trained
TTITLE7=Come Cryin' to Me
TTITLE8=I'd Run Away
TTITLE9=Take It On Faith
EXTD=
EXTT0=
EXTT1=
EXTT2=
EXTT3=
EXTT4=
EXTT5=
EXTT6=
EXTT7=
EXTT8=
EXTT9=
PLAYORDER=
